<svg xmlns="http://www.w3.org/2000/svg" width="100" height="48" viewBox="0 0 100 48">
<g fill="none" stroke-linecap="round" stroke-linejoin="round">
 <path d="M2 40 Q25 43 50 40 T98 40" stroke="#302821" stroke-opacity=".34" stroke-width="3.8"/>
 <polyline points="2,38 22,9 40,24 58,17 72,5 86,27 98,39" fill="#756653" fill-opacity=".86" stroke="#2b241e" stroke-width="2.5"/>
 <path d="M22,10 L30,35 L24,32 M40,25 L48,39 L42,36 M58,18 L66,36 L60,33 M72,6 L80,34 L74,31" stroke="#392f27" stroke-width="2.1"/>
 <path d="M22,11 L17,29 M40,26 L35,33 M58,19 L53,30 M72,7 L67,28" stroke="#c1ae83" stroke-opacity=".82" stroke-width="1.35"/>
 <path d="M32,39 Q37,32 43,39 M64,39 Q69,32 75,39" stroke="#453a2f" stroke-opacity=".9" stroke-width="1.45"/>
</g></svg>
